<svg width="96" height="96" xmlns="http://www.w3.org/2000/svg" xmlns:xlink="http://www.w3.org/1999/xlink" xml:space="preserve" overflow="hidden"><g transform="translate(-1031 -329)"><path d="M1055.86 374.673C1056.41 375.63 1057.64 375.958 1058.59 375.405 1058.69 375.349 1058.78 375.284 1058.87 375.211 1059.62 374.546 1059.79 373.436 1059.27 372.577L1055.08 365.324C1054.53 364.367 1053.31 364.039 1052.35 364.591 1052.35 364.591 1052.35 364.592 1052.35 364.592L1045.1 368.779C1044.18 369.288 1043.78 370.408 1044.18 371.386 1044.63 372.394 1045.81 372.845 1046.82 372.393 1046.88 372.365 1046.94 372.334 1047 372.3L1050.01 370.557C1050.02 370.548 1050.04 370.552 1050.04 370.564 1050.05 370.571 1050.05 370.579 1050.05 370.587 1046.96 386.859 1057.65 402.552 1073.92 405.638 1074.14 405.679 1074.35 405.717 1074.56 405.753 1074.67 405.771 1074.78 405.78 1074.9 405.78 1076 405.783 1076.9 404.889 1076.9 403.785 1076.9 403.737 1076.9 403.689 1076.9 403.641 1076.8 402.688 1076.07 401.922 1075.12 401.79 1060.97 399.356 1051.47 385.909 1053.9 371.754 1053.91 371.69 1053.92 371.626 1053.94 371.562 1053.94 371.545 1053.95 371.534 1053.97 371.537 1053.98 371.538 1053.99 371.543 1053.99 371.551Z" fill="#BCB8B8"/><path d="M1090.12 397.415C1090.66 396.455 1090.33 395.234 1089.37 394.687 1089.31 394.653 1089.25 394.622 1089.18 394.594 1088.2 394.202 1087.09 394.606 1086.58 395.533L1082.44 402.8C1081.89 403.759 1082.22 404.981 1083.18 405.528 1083.18 405.529 1083.18 405.529 1083.18 405.529L1090.46 409.68C1091.32 410.198 1092.43 410.022 1093.09 409.264 1093.8 408.41 1093.67 407.15 1092.82 406.449 1092.73 406.377 1092.64 406.312 1092.54 406.256L1089.48 404.52C1089.46 404.512 1089.46 404.495 1089.47 404.481 1089.47 404.474 1089.48 404.469 1089.48 404.467 1105.12 398.957 1113.33 381.815 1107.82 366.179 1107.77 366.049 1107.72 365.918 1107.68 365.788 1107.32 364.798 1106.28 364.23 1105.26 364.469 1104.19 364.753 1103.56 365.849 1103.84 366.916 1103.86 366.978 1103.88 367.04 1103.9 367.1 1108.9 380.571 1102.04 395.548 1088.57 400.552 1088.51 400.573 1088.46 400.594 1088.4 400.614 1088.38 400.62 1088.37 400.612 1088.36 400.596 1088.36 400.587 1088.36 400.578 1088.36 400.57Z" fill="#BCB8B8"/><path d="M1098.98 353.276C1098.98 353.293 1098.97 353.305 1098.95 353.305 1098.95 353.305 1098.94 353.302 1098.93 353.298 1086.31 342.577 1067.39 344.12 1056.66 356.743 1056.64 356.769 1056.62 356.794 1056.6 356.82 1055.94 357.577 1055.93 358.695 1056.56 359.471 1057.28 360.31 1058.54 360.408 1059.38 359.689 1059.46 359.618 1059.54 359.54 1059.61 359.456 1068.76 348.537 1085.01 347.03 1096.01 356.079 1096.03 356.092 1096.03 356.115 1096.01 356.13 1096.01 356.137 1096 356.142 1095.99 356.142L1092.52 356.142C1091.41 356.142 1090.52 357.037 1090.52 358.141 1090.52 358.255 1090.52 358.368 1090.54 358.48 1090.74 359.465 1091.62 360.166 1092.62 360.144L1100.74 360.144C1100.82 360.157 1100.89 360.165 1100.97 360.169 1101.35 360.167 1101.73 360.052 1102.06 359.839 1102.1 359.81 1102.14 359.778 1102.19 359.746 1102.21 359.729 1102.23 359.717 1102.25 359.7 1102.28 359.683 1102.28 359.672 1102.29 359.66 1102.33 359.625 1102.38 359.597 1102.42 359.56 1102.79 359.184 1103 358.674 1103 358.143L1103 349.765C1103.02 348.76 1102.32 347.883 1101.33 347.684 1100.25 347.499 1099.21 348.232 1099.03 349.321 1099.01 349.432 1099 349.545 1099 349.658Z" fill="#BCB8B8"/><path d="M1071.71 363.49 1065.22 367.422 1079.54 376.101 1086.03 372.169 1071.71 363.49Z" fill="#BCB8B8"/><path d="M1093.86 367.422 1079.54 358.742 1073.38 362.474 1087.7 371.154 1093.86 367.422Z" fill="#BCB8B8"/><path d="M1065.22 370.894 1065.22 384.781 1078.67 392.936 1078.67 377.612 1065.22 369.461 1065.22 370.894Z" fill="#BCB8B8"/><path d="M1085.18 380.007 1082.15 381.743 1082.15 378.705 1085.18 376.969ZM1080.41 377.6 1080.41 392.936 1093.86 384.781 1093.86 369.453Z" fill="#BCB8B8"/></g></svg>